<svg width="22" height="24" viewBox="0 0 22 24" fill="none" xmlns="http://www.w3.org/2000/svg">
	<path
		d="M0.568182 24L4.43182 0.727272H13.6136C15.3712 0.727272 16.8182 1.03788 17.9545 1.65909C19.0985 2.2803 19.9015 3.16288 20.3636 4.30682C20.8333 5.44318 20.9432 6.78409 20.6932 8.32955C20.4356 9.875 19.8788 11.2008 19.0227 12.3068C18.1742 13.4129 17.0682 14.2652 15.7045 14.8636C14.3485 15.4545 12.7765 15.75 10.9886 15.75H4.84091L5.52273 11.7955H10.8636C11.803 11.7955 12.6061 11.6667 13.2727 11.4091C13.9394 11.1515 14.4659 10.7652 14.8523 10.25C15.2462 9.73485 15.5038 9.0947 15.625 8.32955C15.7538 7.54924 15.7083 6.89773 15.4886 6.375C15.2689 5.8447 14.8712 5.44318 14.2955 5.17045C13.7197 4.89015 12.9621 4.75 12.0227 4.75H8.70455L5.48864 24H0.568182ZM14.8864 13.4091L18.9205 24H13.4886L9.57955 13.4091H14.8864Z"
	/>
	<style>
        path { fill: #000; }
        @media (prefers-color-scheme: dark) {
            path { fill: #fff; }
        }
    </style>
</svg>
