<svg xmlns="http://www.w3.org/2000/svg" viewBox="0 0 1820.68 927.52"><defs><style>.cls-1{fill:#fff;}</style></defs><g id="Layer_2" data-name="Layer 2"><g id="Layer_1-2" data-name="Layer 1"><path class="cls-1" d="M533,657.37c-74.49,0-135.07,60.59-135.07,135.07S458.48,927.52,533,927.52,668,866.92,668,792.44,607.44,657.37,533,657.37"/><path class="cls-1" d="M155.5,657.37C81,657.37,20.43,718,20.43,792.44S81,927.52,155.5,927.52s135.07-60.6,135.07-135.08S230,657.37,155.5,657.37"/><path class="cls-1" d="M910.43,657.37C836,657.37,775.36,718,775.36,792.44S836,927.52,910.43,927.52s135.07-60.6,135.07-135.08S984.91,657.37,910.43,657.37"/><path class="cls-1" d="M1665.34,657.37c-74.48,0-135.06,60.59-135.06,135.07s60.58,135.08,135.06,135.08,135.07-60.6,135.07-135.08-60.59-135.07-135.07-135.07"/><path class="cls-1" d="M1287.89,657.38c-74.48,0-135.08,60.59-135.08,135.06s60.59,135.07,135.07,135.07S1423,866.93,1423,792.44s-60.57-135.06-135.06-135.06"/><path class="cls-1" d="M268.09,274.64c0-63.15-47.66-110.81-110.81-110.81S46.47,211.49,46.47,274.64,94.13,385.45,157.28,385.45s110.81-47.66,110.81-110.81M0,274.64c0-87.58,70.3-153.7,157.28-153.7,87.57,0,157.28,65.53,157.28,153.1V408.69c0,13.7-9.54,23.23-23.83,23.23-14.9,0-23.83-9.53-23.83-23.23V369.36h-2.39c-18.46,31.58-55.4,59-110.21,59C69.7,428.34,0,362.81,0,274.64"/><path class="cls-1" d="M644.62,274.64c0-63.15-47.66-110.81-110.81-110.81S423,211.49,423,274.64s47.66,110.81,110.81,110.81,110.81-47.66,110.81-110.81M437.3,527.84c-12.51-6-18.47-16.69-13.7-29.2,4.77-13.11,16.68-18.46,29.19-12.51a182.42,182.42,0,0,0,76.85,17.28c70.9,0,113.79-42.3,113.79-114.38V369.36h-2.38c-18.47,31.58-55.41,59-110.22,59-84.6,0-154.3-65.53-154.3-153.7,0-87.58,70.3-153.7,157.28-153.7,87.58,0,157.28,65.53,157.28,153.1V386c0,96.52-62,161.45-163.24,161.45-31,0-62-6-90.55-19.65"/><path class="cls-1" d="M1021.15,274.64c0-63.15-47.66-110.81-110.8-110.81S799.53,211.49,799.53,274.64s47.66,110.81,110.82,110.81,110.8-47.66,110.8-110.81m-268.09,0c0-87.58,69.71-153.7,157.29-153.7s157.27,66.12,157.27,153.7-69.7,153.7-157.27,153.7-157.29-66.12-157.29-153.7"/><path class="cls-1" d="M1397.68,274.64c0-63.15-47.66-110.81-110.8-110.81s-110.82,47.66-110.82,110.81,47.66,110.81,110.82,110.81,110.8-47.66,110.8-110.81m-268.09,0c0-87.58,69.11-153.7,154.3-153.7,54.82,0,91.75,27.4,110.22,59h2.38V23.24C1396.49,9.53,1406,0,1420.32,0c14.9,0,23.83,9.53,23.83,23.24v252c0,87.58-69.7,153.11-157.27,153.11-87,0-157.29-66.12-157.29-153.7"/><path class="cls-1" d="M1774.22,274.64c0-63.15-47.67-110.81-110.81-110.81S1552.6,211.49,1552.6,274.64s47.65,110.81,110.81,110.81,110.81-47.66,110.81-110.81m-268.1,0c0-87.58,70.31-153.7,157.29-153.7,87.57,0,157.27,65.53,157.27,153.1V408.69c0,13.7-9.53,23.23-23.82,23.23-14.9,0-23.84-9.53-23.84-23.23V369.36h-2.38c-18.47,31.58-55.4,59-110.21,59-84.6,0-154.31-65.53-154.31-153.7"/></g></g></svg>