<?xml version="1.0" encoding="UTF-8" standalone="no"?>
<!DOCTYPE svg PUBLIC "-//W3C//DTD SVG 1.1//EN" "http://www.w3.org/Graphics/SVG/1.1/DTD/svg11.dtd">
<svg width="100%" height="100%" viewBox="0 0 877 264" version="1.1" xmlns="http://www.w3.org/2000/svg" xmlns:xlink="http://www.w3.org/1999/xlink" xml:space="preserve" xmlns:serif="http://www.serif.com/" style="fill-rule:evenodd;clip-rule:evenodd;stroke-linejoin:round;stroke-miterlimit:2;">
    <g transform="matrix(1,0,0,1,-858,-1140.99)">
        <g transform="matrix(4.16667,0,0,4.16667,0,0)">
            <g transform="matrix(1,0,0,1,205.92,305.968)">
                <path d="M0,-0.412C0,-10.526 8.119,-18.163 18.164,-18.163C28.277,-18.163 36.327,-10.595 36.327,-0.481L36.327,15.068C36.327,16.65 35.227,17.751 33.575,17.751C31.855,17.751 30.823,16.65 30.823,15.068L30.823,10.527L30.548,10.527C28.415,14.174 24.149,17.338 17.819,17.338C8.05,17.338 0,9.771 0,-0.412M30.961,-0.412C30.961,-7.705 25.456,-13.209 18.164,-13.209C10.87,-13.209 5.366,-7.705 5.366,-0.412C5.366,6.881 10.87,12.385 18.164,12.385C25.456,12.385 30.961,6.881 30.961,-0.412" style="fill:#fff;fill-rule:nonzero;"/>
            </g>
            <g transform="matrix(1,0,0,1,256.423,290.075)">
                <path d="M0,44.722C-1.445,44.034 -2.133,42.794 -1.583,41.35C-1.032,39.836 0.344,39.218 1.788,39.906C4.266,41.075 7.361,41.901 10.664,41.901C18.852,41.901 23.805,37.016 23.805,28.691L23.805,26.42L23.53,26.42C21.396,30.067 17.132,33.231 10.801,33.231C1.031,33.231 -7.019,25.663 -7.019,15.481C-7.019,5.367 1.101,-2.27 11.146,-2.27C21.26,-2.27 29.31,5.298 29.31,15.411L29.31,28.346C29.31,39.493 22.153,46.992 10.457,46.992C6.88,46.992 3.302,46.304 0,44.722M23.942,15.481C23.942,8.188 18.438,2.683 11.146,2.683C3.853,2.683 -1.651,8.188 -1.651,15.481C-1.651,22.774 3.853,28.278 11.146,28.278C18.438,28.278 23.942,22.774 23.942,15.481" style="fill:#fff;fill-rule:nonzero;"/>
            </g>
            <g transform="matrix(1,0,0,1,292.889,305.555)">
                <path d="M0,0.001C0,-10.113 8.051,-17.75 18.165,-17.75C28.278,-17.75 36.328,-10.113 36.328,0.001C36.328,10.114 28.278,17.751 18.165,17.751C8.051,17.751 0,10.114 0,0.001M30.962,0.001C30.962,-7.292 25.457,-12.796 18.165,-12.796C10.871,-12.796 5.367,-7.292 5.367,0.001C5.367,7.294 10.871,12.798 18.165,12.798C25.457,12.798 30.962,7.294 30.962,0.001" style="fill:#fff;fill-rule:nonzero;"/>
            </g>
            <g transform="matrix(1,0,0,1,336.374,291.588)">
                <path d="M0,13.968C0,3.854 7.98,-3.783 17.819,-3.783C24.149,-3.783 28.416,-0.618 30.548,3.029L30.823,3.029L30.823,-15.066C30.823,-16.649 31.924,-17.75 33.575,-17.75C35.296,-17.75 36.327,-16.649 36.327,-15.066L36.327,14.036C36.327,24.151 28.277,31.718 18.164,31.718C8.119,31.718 0,24.081 0,13.968M30.961,13.968C30.961,6.675 25.457,1.171 18.164,1.171C10.87,1.171 5.366,6.675 5.366,13.968C5.366,21.261 10.87,26.765 18.164,26.765C25.457,26.765 30.961,21.261 30.961,13.968" style="fill:#fff;fill-rule:nonzero;"/>
            </g>
            <g transform="matrix(1,0,0,1,379.858,305.944)">
                <path d="M0,-0.412C0,-10.526 8.119,-18.163 18.164,-18.163C28.278,-18.163 36.328,-10.595 36.328,-0.481L36.328,15.068C36.328,16.65 35.227,17.751 33.576,17.751C31.855,17.751 30.823,16.65 30.823,15.068L30.823,10.527L30.549,10.527C28.415,14.174 24.15,17.338 17.82,17.338C8.05,17.338 0,9.771 0,-0.412M30.962,-0.412C30.962,-7.705 25.457,-13.209 18.164,-13.209C10.871,-13.209 5.367,-7.705 5.367,-0.412C5.367,6.881 10.871,12.385 18.164,12.385C25.457,12.385 30.962,6.881 30.962,-0.412" style="fill:#fff;fill-rule:nonzero;"/>
            </g>
        </g>
    </g>
</svg>
