<?xml version="1.0" encoding="UTF-8" standalone="no"?><!DOCTYPE svg PUBLIC "-//W3C//DTD SVG 1.1//EN" "http://www.w3.org/Graphics/SVG/1.1/DTD/svg11.dtd"><svg width="100%" height="100%" viewBox="0 0 857 130" version="1.1" xmlns="http://www.w3.org/2000/svg" xmlns:xlink="http://www.w3.org/1999/xlink" xml:space="preserve" xmlns:serif="http://www.serif.com/" style="fill-rule:evenodd;clip-rule:evenodd;stroke-linejoin:round;stroke-miterlimit:2;"><g><path d="M246.637,-0c-35.846,-0 -65,29.158 -65,65c-0,35.833 29.154,64.992 65,64.992c35.837,-0 64.996,-29.159 64.996,-64.992c-0,-35.842 -29.159,-65 -64.996,-65" style="fill:#fdb716;fill-rule:nonzero;"/><path d="M65,-0c-35.842,-0 -65,29.158 -65,65c0,35.833 29.158,64.992 65,64.992c35.838,-0 64.996,-29.159 64.996,-64.992c-0,-35.842 -29.158,-65 -64.996,-65" style="fill:#ef363f;fill-rule:nonzero;"/><path d="M428.269,-0c-35.842,-0 -64.996,29.158 -64.996,65c0,35.833 29.154,64.992 64.996,64.992c35.842,-0 65,-29.159 65,-64.992c0,-35.842 -29.158,-65 -65,-65" style="fill:#0db057;fill-rule:nonzero;"/><path d="M791.53,-0c-35.838,-0 -64.992,29.158 -64.992,65c0,35.833 29.154,64.992 64.992,64.992c35.846,-0 65,-29.159 65,-64.992c-0,-35.842 -29.154,-65 -65,-65" style="fill:#13aae1;fill-rule:nonzero;"/><path d="M609.906,0.004c-35.846,0 -65.004,29.154 -65.004,64.996c-0,35.838 29.154,64.988 65,64.988c35.841,-0 64.995,-29.15 64.995,-64.988c0,-35.842 -29.15,-64.996 -64.991,-64.996" style="fill:#a2479b;fill-rule:nonzero;"/></g></svg>