<?xml version="1.0" encoding="UTF-8" standalone="no"?>
<!DOCTYPE svg PUBLIC "-//W3C//DTD SVG 1.1//EN" "http://www.w3.org/Graphics/SVG/1.1/DTD/svg11.dtd">
<svg width="100%" height="100%" viewBox="0 0 4057 722" version="1.1" xmlns="http://www.w3.org/2000/svg" xmlns:xlink="http://www.w3.org/1999/xlink" xml:space="preserve" xmlns:serif="http://www.serif.com/" style="fill-rule:evenodd;clip-rule:evenodd;stroke-linejoin:round;stroke-miterlimit:2;">
    <g transform="matrix(1,0,0,1,-207.358,-153.267)">
        <g transform="matrix(4.16667,0,0,4.16667,0,0)">
            <g>
                <path d="M60.371,189.124L52.804,178.219L60.015,178.219L64.065,184.228L68.071,178.219L75.059,178.219L67.492,188.99L75.994,201.231L68.783,201.231L63.976,193.976L59.169,201.231L52.092,201.231L60.371,189.124Z" style="fill:rgb(238,53,35);fill-rule:nonzero;"/>
                <path d="M105.947,197.136L83.469,197.136L83.469,192.373L105.947,192.373L105.947,197.136ZM105.947,187.61L83.469,187.61L83.469,182.848L105.947,182.848L105.947,187.61Z" style="fill:rgb(3,4,4);fill-rule:nonzero;"/>
                <path d="M116.85,178.219L123.17,178.219L123.17,201.231L116.85,201.231L116.85,178.219ZM123.17,174.658L116.85,174.658L116.85,169.45L123.17,169.45L123.17,174.658Z" style="fill:rgb(3,4,4);fill-rule:nonzero;"/>
                <path d="M127.264,178.219L133.273,178.219L133.273,181.423L133.407,181.423C135.009,178.842 137.768,177.596 140.439,177.596C147.16,177.596 148.852,181.379 148.852,187.076L148.852,201.231L142.531,201.231L142.531,188.233C142.531,184.45 141.418,182.581 138.481,182.581C135.054,182.581 133.585,184.495 133.585,189.168L133.585,201.231L127.264,201.231L127.264,178.219Z" style="fill:rgb(3,4,4);fill-rule:nonzero;"/>
                <path d="M163.671,182.358C159.532,182.358 158.107,185.919 158.107,189.703C158.107,193.308 159.754,197.091 163.671,197.091C167.855,197.091 169.102,193.441 169.102,189.658C169.102,185.919 167.766,182.358 163.671,182.358ZM169.19,198.293L169.102,198.293C167.633,200.785 165.051,201.854 162.113,201.854C155.17,201.854 151.787,195.889 151.787,189.524C151.787,183.337 155.214,177.596 161.98,177.596C164.695,177.596 167.366,178.753 168.834,181.023L168.79,181.023L168.879,181.023L168.879,169.45L175.199,169.45L175.199,201.231L169.19,201.231L169.19,198.293Z" style="fill:rgb(3,4,4);fill-rule:nonzero;"/>
                <path d="M194.559,187.254C193.98,184.05 192.6,182.358 189.529,182.358C185.523,182.358 184.366,185.474 184.277,187.254L194.559,187.254ZM184.277,191.26C184.455,195.266 186.413,197.091 189.93,197.091C192.467,197.091 194.515,195.533 194.915,194.109L200.479,194.109C198.698,199.539 194.915,201.854 189.707,201.854C182.452,201.854 177.957,196.869 177.957,189.747C177.957,182.848 182.719,177.596 189.707,177.596C197.541,177.596 201.325,184.183 200.879,191.26L184.277,191.26Z" style="fill:rgb(3,4,4);fill-rule:nonzero;"/>
                <path d="M220.818,189.792C220.818,186.142 219.349,182.358 215.299,182.358C211.16,182.358 209.824,186.053 209.824,189.792C209.824,193.53 211.248,197.091 215.343,197.091C219.483,197.091 220.818,193.53 220.818,189.792ZM203.726,178.219L209.735,178.219L209.735,181.157L209.824,181.157C211.337,178.709 213.83,177.596 216.679,177.596C223.889,177.596 227.139,183.427 227.139,189.969C227.139,196.112 223.756,201.854 217.035,201.854C214.275,201.854 211.649,200.652 210.136,198.382L210.047,198.382L210.047,209.331L203.726,209.331L203.726,178.219Z" style="fill:rgb(3,4,4);fill-rule:nonzero;"/>
                <path d="M245.519,187.254C244.94,184.05 243.56,182.358 240.489,182.358C236.483,182.358 235.326,185.474 235.237,187.254L245.519,187.254ZM235.237,191.26C235.415,195.266 237.373,197.091 240.89,197.091C243.427,197.091 245.475,195.533 245.875,194.109L251.439,194.109C249.658,199.539 245.875,201.854 240.667,201.854C233.412,201.854 228.917,196.869 228.917,189.747C228.917,182.848 233.679,177.596 240.667,177.596C248.501,177.596 252.285,184.183 251.839,191.26L235.237,191.26Z" style="fill:rgb(3,4,4);fill-rule:nonzero;"/>
                <path d="M254.686,178.219L260.695,178.219L260.695,181.423L260.829,181.423C262.431,178.842 265.19,177.596 267.861,177.596C274.582,177.596 276.273,181.379 276.273,187.076L276.273,201.231L269.953,201.231L269.953,188.233C269.953,184.45 268.84,182.581 265.903,182.581C262.475,182.581 261.006,184.495 261.006,189.168L261.006,201.231L254.686,201.231L254.686,178.219Z" style="fill:rgb(3,4,4);fill-rule:nonzero;"/>
                <path d="M291.093,182.358C286.954,182.358 285.529,185.919 285.529,189.703C285.529,193.308 287.176,197.091 291.093,197.091C295.277,197.091 296.523,193.441 296.523,189.658C296.523,185.919 295.188,182.358 291.093,182.358ZM296.612,198.293L296.523,198.293C295.055,200.785 292.473,201.854 289.535,201.854C282.592,201.854 279.209,195.889 279.209,189.524C279.209,183.337 282.636,177.596 289.402,177.596C292.117,177.596 294.788,178.753 296.256,181.023L296.212,181.023L296.301,181.023L296.301,169.45L302.621,169.45L302.621,201.231L296.612,201.231L296.612,198.293Z" style="fill:rgb(3,4,4);fill-rule:nonzero;"/>
                <path d="M321.981,187.254C321.402,184.05 320.022,182.358 316.951,182.358C312.945,182.358 311.788,185.474 311.699,187.254L321.981,187.254ZM311.699,191.26C311.877,195.266 313.835,197.091 317.352,197.091C319.889,197.091 321.936,195.533 322.337,194.109L327.901,194.109C326.12,199.539 322.337,201.854 317.129,201.854C309.874,201.854 305.379,196.869 305.379,189.747C305.379,182.848 310.141,177.596 317.129,177.596C324.963,177.596 328.746,184.183 328.301,191.26L311.699,191.26Z" style="fill:rgb(3,4,4);fill-rule:nonzero;"/>
                <path d="M331.148,178.219L337.157,178.219L337.157,181.423L337.29,181.423C338.893,178.842 341.652,177.596 344.323,177.596C351.044,177.596 352.735,181.379 352.735,187.076L352.735,201.231L346.415,201.231L346.415,188.233C346.415,184.45 345.302,182.581 342.365,182.581C338.938,182.581 337.469,184.495 337.469,189.168L337.469,201.231L331.148,201.231L331.148,178.219Z" style="fill:rgb(3,4,4);fill-rule:nonzero;"/>
                <path d="M364.662,178.219L369.291,178.219L369.291,182.447L364.662,182.447L364.662,193.842C364.662,195.979 365.196,196.512 367.332,196.512C368,196.512 368.623,196.468 369.291,196.335L369.291,201.275C368.223,201.453 366.843,201.498 365.597,201.498C361.724,201.498 358.341,200.608 358.341,196.023L358.341,182.447L354.514,182.447L354.514,178.219L358.341,178.219L358.341,171.32L364.662,171.32L364.662,178.219Z" style="fill:rgb(3,4,4);fill-rule:nonzero;"/>
                <rect x="371.604" y="169.45" width="6.32" height="31.781" style="fill:rgb(3,4,4);fill-rule:nonzero;"/>
                <path d="M393.369,204.124C391.989,207.818 389.808,209.331 385.446,209.331C384.155,209.331 382.864,209.242 381.574,209.108L381.574,203.901C382.775,203.99 384.021,204.168 385.268,204.124C387.449,203.901 388.161,201.631 387.449,199.806L379.348,178.219L386.114,178.219L391.321,193.976L391.41,193.976L396.44,178.219L402.983,178.219L393.369,204.124Z" style="fill:rgb(3,4,4);fill-rule:nonzero;"/>
                <path d="M426.883,197.091C431.2,197.091 432.491,193.397 432.491,189.747C432.491,186.053 431.2,182.358 426.883,182.358C422.61,182.358 421.319,186.053 421.319,189.747C421.319,193.397 422.61,197.091 426.883,197.091ZM426.883,177.596C434.138,177.596 438.811,182.403 438.811,189.747C438.811,197.046 434.138,201.854 426.883,201.854C419.672,201.854 414.998,197.046 414.998,189.747C414.998,182.403 419.672,177.596 426.883,177.596Z" style="fill:rgb(3,4,4);fill-rule:nonzero;"/>
                <path d="M441.123,178.219L447.133,178.219L447.133,182.492L447.222,182.492C448.379,179.599 451.495,177.596 454.566,177.596C455.011,177.596 455.545,177.685 455.945,177.818L455.945,183.693C455.367,183.56 454.432,183.471 453.675,183.471C449.046,183.471 447.444,186.809 447.444,190.86L447.444,201.231L441.123,201.231L441.123,178.219Z" style="fill:rgb(3,4,4);fill-rule:nonzero;"/>
                <path d="M473.659,189.436C473.659,185.696 472.368,182.358 468.273,182.358C464.713,182.358 463.155,185.474 463.155,188.901C463.155,192.195 464.401,195.8 468.273,195.8C471.879,195.8 473.659,192.729 473.659,189.436ZM479.668,199.762C479.668,203.545 478.332,209.954 467.739,209.954C463.199,209.954 457.903,207.818 457.591,202.566L463.867,202.566C464.446,204.925 466.359,205.727 468.585,205.727C472.102,205.727 473.704,203.322 473.659,200.029L473.659,197.002L473.57,197.002C472.19,199.406 469.431,200.563 466.671,200.563C459.772,200.563 456.834,195.311 456.834,188.99C456.834,183.026 460.262,177.596 466.716,177.596C469.742,177.596 472.057,178.62 473.57,181.29L473.659,181.29L473.659,178.219L479.668,178.219L479.668,199.762Z" style="fill:rgb(3,4,4);fill-rule:nonzero;"/>
                <path d="M497.292,189.969C496.224,190.904 493.998,190.949 492.039,191.305C490.081,191.706 488.301,192.373 488.301,194.688C488.301,197.046 490.126,197.625 492.173,197.625C497.114,197.625 497.292,193.709 497.292,192.329L497.292,189.969ZM482.693,185.296C483.049,179.376 488.345,177.596 493.508,177.596C498.093,177.596 503.612,178.62 503.612,184.139L503.612,196.112C503.612,198.204 503.835,200.296 504.413,201.231L498.004,201.231C497.781,200.519 497.603,199.762 497.559,199.005C495.556,201.097 492.618,201.854 489.814,201.854C485.452,201.854 481.98,199.673 481.98,194.955C481.98,189.747 485.897,188.501 489.814,187.966C493.686,187.388 497.292,187.522 497.292,184.94C497.292,182.225 495.422,181.824 493.197,181.824C490.793,181.824 489.235,182.803 489.013,185.296L482.693,185.296Z" style="fill:rgb(3,4,4);fill-rule:nonzero;"/>
                <path d="M507.616,178.219L513.625,178.219L513.625,181.423L513.758,181.423C515.361,178.842 518.12,177.596 520.792,177.596C527.512,177.596 529.204,181.379 529.204,187.076L529.204,201.231L522.883,201.231L522.883,188.233C522.883,184.45 521.771,182.581 518.833,182.581C515.406,182.581 513.937,184.495 513.937,189.168L513.937,201.231L507.616,201.231L507.616,178.219Z" style="fill:rgb(3,4,4);fill-rule:nonzero;"/>
                <path d="M532.406,178.219L538.727,178.219L538.727,201.231L532.406,201.231L532.406,178.219ZM538.727,174.658L532.406,174.658L532.406,169.45L538.727,169.45L538.727,174.658Z" style="fill:rgb(3,4,4);fill-rule:nonzero;"/>
                <path d="M541.396,196.468L553.37,182.981L542.287,182.981L542.287,178.219L561.693,178.219L561.693,182.981L549.72,196.468L562.539,196.468L562.539,201.231L541.396,201.231L541.396,196.468Z" style="fill:rgb(3,4,4);fill-rule:nonzero;"/>
                <path d="M580.519,187.254C579.941,184.05 578.561,182.358 575.49,182.358C571.484,182.358 570.327,185.474 570.238,187.254L580.519,187.254ZM570.238,191.26C570.415,195.266 572.375,197.091 575.89,197.091C578.427,197.091 580.475,195.533 580.875,194.109L586.439,194.109C584.659,199.539 580.875,201.854 575.667,201.854C568.413,201.854 563.917,196.869 563.917,189.747C563.917,182.848 568.68,177.596 575.667,177.596C583.501,177.596 587.285,184.183 586.84,191.26L570.238,191.26Z" style="fill:rgb(3,4,4);fill-rule:nonzero;"/>
                <path d="M600.592,182.358C596.453,182.358 595.029,185.919 595.029,189.703C595.029,193.308 596.675,197.091 600.592,197.091C604.776,197.091 606.022,193.441 606.022,189.658C606.022,185.919 604.687,182.358 600.592,182.358ZM606.112,198.293L606.022,198.293C604.553,200.785 601.972,201.854 599.035,201.854C592.09,201.854 588.707,195.889 588.707,189.524C588.707,183.337 592.135,177.596 598.901,177.596C601.616,177.596 604.287,178.753 605.755,181.023L605.71,181.023L605.799,181.023L605.799,169.45L612.121,169.45L612.121,201.231L606.112,201.231L606.112,198.293Z" style="fill:rgb(3,4,4);fill-rule:nonzero;"/>
                <path d="M635.173,175.326L625.649,175.326L625.649,169.45L651.687,169.45L651.687,175.326L642.162,175.326L642.162,201.231L635.173,201.231L635.173,175.326Z" style="fill:rgb(3,4,4);fill-rule:nonzero;"/>
                <path d="M654.444,169.45L678.212,169.45L678.212,175.326L661.432,175.326L661.432,182.136L676.832,182.136L676.832,187.566L661.432,187.566L661.432,195.355L678.568,195.355L678.568,201.231L654.444,201.231L654.444,169.45Z" style="fill:rgb(3,4,4);fill-rule:nonzero;"/>
                <path d="M688.493,195.355L694.724,195.355C698.774,195.355 702.647,192.863 702.647,185.83C702.647,179.42 700.421,175.326 693.477,175.326L688.493,175.326L688.493,195.355ZM681.504,169.45L695.213,169.45C703.448,169.45 709.634,174.614 709.634,185.163C709.634,194.376 704.917,201.231 695.213,201.231L681.504,201.231L681.504,169.45Z" style="fill:rgb(3,4,4);fill-rule:nonzero;"/>
                <path d="M739.898,187.254C739.32,184.05 737.94,182.358 734.869,182.358C730.863,182.358 729.706,185.474 729.617,187.254L739.898,187.254ZM729.617,191.26C729.794,195.266 731.753,197.091 735.269,197.091C737.806,197.091 739.854,195.533 740.254,194.109L745.818,194.109C744.038,199.539 740.254,201.854 735.046,201.854C727.792,201.854 723.296,196.869 723.296,189.747C723.296,182.848 728.059,177.596 735.046,177.596C742.88,177.596 746.663,184.183 746.219,191.26L729.617,191.26Z" style="fill:rgb(3,4,4);fill-rule:nonzero;"/>
                <path d="M760.906,201.231L753.872,201.231L745.995,178.219L752.626,178.219L757.478,193.931L757.567,193.931L762.418,178.219L768.695,178.219L760.906,201.231Z" style="fill:rgb(3,4,4);fill-rule:nonzero;"/>
                <path d="M785.028,187.254C784.45,184.05 783.07,182.358 779.998,182.358C775.993,182.358 774.835,185.474 774.746,187.254L785.028,187.254ZM774.746,191.26C774.924,195.266 776.883,197.091 780.399,197.091C782.936,197.091 784.984,195.533 785.384,194.109L790.948,194.109C789.167,199.539 785.384,201.854 780.176,201.854C772.921,201.854 768.426,196.869 768.426,189.747C768.426,182.848 773.189,177.596 780.176,177.596C788.01,177.596 791.793,184.183 791.348,191.26L774.746,191.26Z" style="fill:rgb(3,4,4);fill-rule:nonzero;"/>
                <path d="M794.196,178.219L800.204,178.219L800.204,181.423L800.338,181.423C801.941,178.842 804.701,177.596 807.371,177.596C814.092,177.596 815.784,181.379 815.784,187.076L815.784,201.231L809.463,201.231L809.463,188.233C809.463,184.45 808.35,182.581 805.413,182.581C801.985,182.581 800.516,184.495 800.516,189.168L800.516,201.231L794.196,201.231L794.196,178.219Z" style="fill:rgb(3,4,4);fill-rule:nonzero;"/>
                <path d="M827.709,178.219L832.338,178.219L832.338,182.447L827.709,182.447L827.709,193.842C827.709,195.979 828.244,196.512 830.38,196.512C831.048,196.512 831.671,196.468 832.338,196.335L832.338,201.275C831.271,201.453 829.891,201.498 828.644,201.498C824.772,201.498 821.389,200.608 821.389,196.023L821.389,182.447L817.561,182.447L817.561,178.219L821.389,178.219L821.389,171.32L827.709,171.32L827.709,178.219Z" style="fill:rgb(3,4,4);fill-rule:nonzero;"/>
                <path d="M79.421,64.309L49.766,64.309L49.766,37.188L141.646,37.188L141.646,64.309L112.002,64.309L112.002,143.004L79.421,143.004L79.421,64.309Z" style="fill:rgb(238,53,35);fill-rule:nonzero;"/>
                <path d="M146.71,37.188L235.902,37.188L235.902,64.309L179.312,64.309L179.312,77.495L235.902,77.495L235.902,102.697L179.312,102.697L179.312,115.884L235.917,115.884L235.917,143.004L146.71,143.004L146.71,37.188Z" style="fill:rgb(238,53,35);fill-rule:nonzero;"/>
                <path d="M273.989,115.884L286.739,115.884C307.048,115.884 310.017,99.429 310.017,89.488C310.017,82.832 307.931,64.309 284.365,64.309L273.989,64.309L273.989,115.884ZM241.389,37.188L294.889,37.188C330.155,37.188 342.619,63.273 342.619,89.941C342.619,122.406 325.427,143.004 288.523,143.004L241.389,143.004L241.389,37.188Z" style="fill:rgb(238,53,35);fill-rule:nonzero;"/>
                <path d="M389.464,102.227L379.519,85.736L369.821,102.227L345.934,102.227L368.611,68.881L346.775,36.985L370.67,36.985L379.519,52.752L388.621,36.985L412.51,36.985L390.681,68.881L413.357,102.227L389.464,102.227Z" style="fill:rgb(238,53,35);fill-rule:nonzero;"/>
                <path d="M432.049,141.039L445.534,141.039L445.534,79.559C445.534,77.094 445.534,73.324 445.389,68.104C445.244,62.884 445.099,58.969 445.099,56.359L445.099,53.169L475.114,141.039L489.034,141.039L518.904,53.169C518.904,58.824 518.904,64.189 518.759,68.974C518.614,73.904 518.469,77.529 518.469,79.559L518.469,141.039L531.954,141.039L531.954,36.929L511.944,36.929L482.219,124.944L452.204,36.929L432.049,36.929L432.049,141.039Z" style="fill:rgb(3,4,4);fill-rule:nonzero;"/>
                <path d="M561.245,120.739C561.245,115.954 563.275,112.474 567.19,110.154C569.365,108.849 572.845,107.979 577.485,107.399L585.315,106.529C587.635,106.239 590.1,105.804 592.42,105.079C594.885,104.354 596.915,103.484 598.51,102.469L598.51,112.764C598.51,120.449 595.03,126.104 587.925,129.584C583.72,131.614 579.37,132.629 574.875,132.629C571.105,132.629 567.915,131.614 565.305,129.439C562.55,127.409 561.245,124.509 561.245,120.739ZM571.83,97.684C564.725,98.554 558.925,100.874 554.43,104.789C550.08,108.704 547.905,114.214 547.905,121.174C547.905,127.554 550.08,132.919 554.575,137.269C559.07,141.474 564.87,143.649 571.83,143.649C577.775,143.649 583.14,142.344 587.925,139.879C592.855,137.269 596.48,134.369 599.09,130.889C599.525,133.934 600.25,136.254 601.41,137.994C603.295,141.039 606.485,142.634 610.835,142.634C612.72,142.634 614.17,142.489 615.185,142.489C616.2,142.344 617.65,141.909 619.68,141.329L619.68,131.904C618.81,132.049 618.085,132.194 617.36,132.194C616.78,132.339 616.055,132.339 615.475,132.339C613.735,132.339 612.575,131.904 612.14,131.179C611.56,130.309 611.27,129.294 611.27,127.989L611.27,84.199C611.27,77.094 608.515,71.729 603.005,68.394C597.35,65.059 590.1,63.319 581.255,63.319C573.57,63.319 566.755,65.204 560.955,68.829C555.155,72.454 552.11,78.979 551.82,88.404L563.71,88.404C564.145,84.489 565.16,81.444 566.755,79.414C569.51,75.789 574.295,74.049 580.965,74.049C586.62,74.049 591.115,75.064 594.16,76.949C597.205,78.979 598.8,82.169 598.8,86.519C598.8,88.694 598.51,90.289 598.075,91.449C597.06,93.479 595.03,94.784 592.13,95.074L571.83,97.684Z" style="fill:rgb(3,4,4);fill-rule:nonzero;"/>
                <path d="M632.026,141.039L644.786,141.039L644.786,100.874C644.786,90.724 646.961,83.909 651.166,80.284C655.516,76.659 660.301,74.774 665.666,74.774C671.901,74.774 676.251,76.804 678.571,81.009C680.021,83.619 680.746,87.679 680.746,93.189L680.746,141.039L693.796,141.039L693.796,92.319C693.796,84.924 692.781,79.124 690.606,74.919C686.691,67.234 679.296,63.319 668.276,63.319C662.186,63.319 656.966,64.624 652.906,67.379C650.586,68.974 647.831,71.584 644.786,75.499L644.786,36.784L632.026,36.784L632.026,141.039Z" style="fill:rgb(3,4,4);fill-rule:nonzero;"/>
                <path d="M712.669,141.039L725.574,141.039L725.574,65.494L712.669,65.494L712.669,141.039ZM712.669,51.574L725.574,51.574L725.574,37.074L712.669,37.074L712.669,51.574Z" style="fill:rgb(3,4,4);fill-rule:nonzero;"/>
                <path d="M753.004,103.919C753.004,94.494 755.034,87.244 758.949,82.314C762.864,77.384 768.084,74.919 774.464,74.919C780.264,74.919 785.049,77.239 788.964,81.879C792.879,86.374 794.764,93.479 794.764,103.194C794.764,112.619 792.879,119.869 789.109,124.944C785.339,130.019 780.554,132.629 774.609,132.629C767.069,132.629 761.559,129.874 758.079,124.364C754.744,118.854 753.004,112.184 753.004,103.919ZM772.144,63.899C761.559,63.899 753.584,67.959 747.929,76.079C742.274,84.054 739.519,93.624 739.519,104.644C739.519,116.534 742.564,125.959 748.799,133.064C754.889,140.169 762.284,143.649 770.694,143.649C775.914,143.649 780.554,142.634 784.469,140.604C788.529,138.429 792.154,135.094 795.054,130.454L795.054,141.039L806.509,141.039L806.509,36.784L794.329,36.784L794.329,74.919C791.429,71.439 788.819,68.974 786.644,67.524C782.729,65.059 777.944,63.899 772.144,63.899Z" style="fill:rgb(3,4,4);fill-rule:nonzero;"/>
                <path d="M855.395,132.629C847.855,132.629 842.2,129.874 838.72,124.509C835.24,119.144 833.5,112.474 833.5,104.499C833.5,96.089 835.24,88.839 838.72,82.894C842.2,76.949 847.855,74.049 855.54,74.049C864.24,74.049 870.33,77.529 873.955,84.489C876.13,88.984 877.29,94.639 877.29,101.744C877.29,109.574 875.695,116.679 872.65,123.059C869.46,129.439 863.805,132.629 855.395,132.629ZM855.975,63.029C845.1,63.029 836.545,66.799 830.02,74.339C823.64,81.879 820.45,92.029 820.45,104.644C820.45,116.534 823.495,126.104 829.585,133.064C835.675,140.169 843.94,143.649 854.235,143.649C866.705,143.649 875.84,139.734 881.785,131.759C887.73,123.784 890.63,113.634 890.63,101.454C890.63,88.839 887.295,79.269 880.625,72.744C873.81,66.219 865.69,63.029 855.975,63.029Z" style="fill:rgb(3,4,4);fill-rule:nonzero;"/>
                <rect x="906.602" y="37.074" width="12.76" height="103.965" style="fill:rgb(3,4,4);fill-rule:nonzero;"/>
                <path d="M941.282,36.929L941.282,95.364C941.282,108.124 943.022,117.984 946.502,124.944C952.737,137.559 964.627,143.794 982.172,143.794C999.717,143.794 1011.75,137.559 1017.99,124.944C1021.47,117.984 1023.21,108.124 1023.21,95.364L1023.21,36.929L1009,36.929L1009,101.164C1009,108.704 1007.84,114.649 1005.52,119.144C1001.17,127.264 993.047,131.324 981.012,131.324C971.007,131.324 963.902,127.554 959.697,120.014C956.942,114.939 955.492,108.704 955.492,101.164L955.492,36.929L941.282,36.929Z" style="fill:rgb(3,4,4);fill-rule:nonzero;"/>
            </g>
        </g>
    </g>
</svg>
