<svg xmlns="http://www.w3.org/2000/svg" width="96" height="20" viewBox="0 0 96 20">
	<g fill="none" fill-rule="evenodd">
	  <path fill="#FFF" d="M95.7009346 14.7151028C95.7009346 17.6725794 92.7711215 19.966785 88.8463551 19.966785 86.1375701 19.966785 84.2026168 19.4415514 82.1850467 18.4465981 81.9914953 18.3360374 81.9086916 18.0871589 81.9914953 17.8937944L82.71 16.4011776C82.8206542 16.1800561 83.0695327 16.0971589 83.2905607 16.1800561 84.8935514 16.9263178 86.6625234 17.4515514 88.6250467 17.4515514 90.781028 17.4515514 92.7435514 16.373514 92.7435514 14.6874393 92.7435514 9.43585047 81.9914953 12.3656636 81.9914953 5.428 81.9914953 2.08360748 84.5068224.0934205607 88.0169159.0934205607 89.0949533.0934205607 91.5548598.259308411 94.2636449 1.47547664 94.4847664 1.55837383 94.5678505 1.80715888 94.4847664 2.02828037L93.7662617 3.60370093C93.6833645 3.82491589 93.434486 3.93538318 93.2134579 3.85257944 91.8590654 3.32734579 89.8137383 2.7468785 88.6528037 2.7468785 86.6074766 2.7468785 84.976729 3.1615514 84.8385047 5.20697196 84.8385047 9.6568785 95.7009346 7.11407477 95.7009346 14.7151028M75.4975607 12.3933551L75.4975607.812046729C75.4975607.591018692 75.6911121.39746729 75.9121402.39746729L77.9574673.39746729C78.1785888.39746729 78.3720467.591018692 78.3720467.812046729L78.3720467 12.3933551C78.3720467 15.5996168 76.4096168 19.9391495 70.8262523 19.9391495 65.2429813 19.9391495 63.3083084 15.5996168 63.3083084 12.3933551L63.3083084.812046729C63.3083084.591018692 63.5015794.39746729 63.7228879.39746729L65.7128879.39746729C65.9339159.39746729 66.1274673.591018692 66.1274673.812046729L66.1274673 12.3933551C66.1274673 13.7477477 67.0672804 17.4790561 70.8262523 17.4790561 74.5853178 17.4790561 75.4975607 13.7477477 75.4975607 12.3933551M56.9522336 14.2728598C56.9522336 13.1673458 56.4823271 11.5088411 53.5249439 11.453514L48.7705514 11.453514 48.7705514 17.258 53.4142897 17.258C56.4823271 17.258 56.9522336 15.0191215 56.9522336 14.2728598M56.9522336 5.89790654C56.9522336 5.15164486 56.4823271 2.85753271 53.4142897 2.85753271L48.7705514 2.85753271 48.7705514 8.93828037 53.5249439 8.93828037C56.4823271 8.88304673 56.9522336 6.86528972 56.9522336 5.89790654M59.8545701 14.2728598C59.8545701 16.5670654 58.3066262 19.7456636 53.1379346 19.7456636L46.3934486 19.7456636C46.1724206 19.7456636 45.9788692 19.5521121 45.9788692 19.3310841L45.9788692.812018692C45.9788692.590990654 46.1724206.397439252 46.3934486.397439252L53.1379346.397439252C58.3066262.397439252 59.8545701 3.60370093 59.8545701 5.89790654 59.8545701 7.36285981 59.135785 9.07650467 57.5050374 10.0716449 59.135785 10.9008037 59.8545701 13.0014579 59.8545701 14.2728598M32.677.540803738L24.3431682 18.8277196C24.112514 19.3338879 24.482514 19.909028 25.0386822 19.909028L28.135972 19.909028C28.4355047 19.909028 28.7073738 19.7341682 28.8315794 19.4616449L33.372514 9.49734579 37.9135421 19.4616449C38.0377477 19.7341682 38.3096168 19.909028 38.6090561 19.909028L41.7063458 19.909028C42.2626075 19.909028 42.6326075 19.3338879 42.4018598 18.8277196L34.0681215.540803738C33.7962523-.0557383178 32.9488692-.0557383178 32.677.540803738M23.8951028.093411215C23.5956636.093411215 23.3237944.268271028 23.1995888.540794393L14.8394019 18.8854673C14.6087477 19.3916355 14.9787477 19.9667757 15.5350093 19.9667757L18.6322056 19.9667757C18.9317383 19.9667757 19.2036075 19.7919159 19.3278131 19.5193925L27.6879065 1.17471963C27.9185607.668551402 27.5486542.093411215 26.9923925.093411215L23.8951028.093411215zM6.71290654 15.7519252L8.40599065 19.4670654C8.67785981 20.0636075 9.52524299 20.0636075 9.79711215 19.4670654L18.1333738 1.17472897C18.3641215.668560748 17.9941215.0934205607 17.4378598.0934205607L14.3405701.0934205607C14.0411308.0934205607 13.7692617.268280374 13.6450561.540803738L6.71290654 15.7519252z"/>
	  <path fill="#E83155" d="M0.765205607,0.093411215 C0.209037383,0.093411215 -0.160962617,0.668551402 0.0696915888,1.17471963 L6.71296262,15.7519159 L11.4901589,5.26920561 L9.33529907,0.540794393 C9.21109346,0.268271028 8.9392243,0.093411215 8.63978505,0.093411215 L0.765205607,0.093411215 Z"/>
	</g>
  </svg>
